<?xml version="1.0" encoding="utf-8"?>
<!-- Generator: Adobe Illustrator 26.1.0, SVG Export Plug-In . SVG Version: 6.00 Build 0)  -->
<svg version="1.1" xmlns="http://www.w3.org/2000/svg" xmlns:xlink="http://www.w3.org/1999/xlink" x="0px" y="0px"
	 viewBox="0 0 500 500" style="enable-background:new 0 0 500 500;" xml:space="preserve">
<style type="text/css">
	.st0{fill:#DDECFF;}
	.st1{fill:#60A8FF;}
	.st2{fill:#223A7A;}
	.st3{fill:#FFFFFF;}
	.st4{fill:#1C83FF;}
	.st5{fill:#FF9D8C;}
	.st6{fill:#8593B6;}
	.st7{fill:#8E9BBB;}
	.st8{fill:#DEE1EB;}
	.st9{fill:#818FB3;}
	.st10{fill:#6BAEFF;}
	.st11{fill:#43588E;}
	.st12{fill:#F6F7FA;}
	.st13{fill:#D9DEE8;}
	.st14{fill:#596B9B;}
	.st15{fill:#7A89AF;}
	.st16{fill:#BDC4D7;}
	.st17{fill:#6F7FA9;}
	.st18{fill:#9CA6C3;}
	.st19{fill:#D2E6FF;}
	.st20{fill:#FF5F42;}
	.st21{font-family:'Quicksand-Bold';}
	.st22{font-size:12px;}
	.st23{fill:#67ACFF;}
</style>
<g id="BACKGROUND">
	<path class="st0" d="M107.46,384.26c0,0-54.62-38.9-70.34-105.1c-15.72-66.21,8.28-146.48,53.79-187.03
		c45.52-40.55,127.45-13.24,163.86,20.69s36.41,33.93,36.41,33.93s34.76,19.03,80.28,17.38c45.52-1.66,86.07,60.41,96.83,109.24
		s-14.9,113.38-14.9,113.38L107.46,384.26z"/>
	<path class="st0" d="M82.64,394.19c0,0-38.07-20.69-48-68.69s33.1-91.86,37.24-115.86c4.14-24-4.97-53.79,33.1-76.97
		c38.07-23.17,105.93-14.9,131.59-20.69c25.66-5.79,55.45-45.52,106.76-36.41c51.31,9.1,100.97,36.41,103.45,96
		c2.48,59.59-16.55,61.24,2.48,93.52c19.03,32.28,26.48,54.62,17.38,87.72c-9.1,33.1-28.14,42.21-28.14,42.21L82.64,394.19z"/>
	<path class="st0" d="M162.12,383.43c-2.37-2.48-37.1-72,1.58-135.72c38.68-63.72,135.77-56.28,174.45-31.45s57.62,57.1,61.57,91.03
		c3.95,33.93-22.1,86.9-22.1,86.9L162.12,383.43z"/>
</g>
<g id="OBJECTS">
	<g>
		<g>
			<path class="st1" d="M434.46,266.4h-44.62c-2.76,0-5-2.24-5-5v-22.28c0-2.76,2.24-5,5-5h44.62c2.76,0,5,2.24,5,5v22.28
				C439.46,264.16,437.22,266.4,434.46,266.4z"/>
			<polygon class="st1" points="412.15,279.02 419.22,262.26 405.08,262.26 			"/>
		</g>
		<g>
			<g>
				<g>
					<polygon class="st2" points="411.98,244.72 424.76,244.72 424.76,246.59 431.02,242.98 424.76,239.37 424.76,241.24 
						411.98,241.24 					"/>
				</g>
				<g>
					<polygon class="st3" points="431.02,252.06 418.25,252.06 418.25,250.2 411.98,253.81 418.25,257.42 418.25,255.55 
						431.02,255.55 					"/>
				</g>
			</g>
			<g>
				<path class="st2" d="M404.14,255.35l-0.61,0.22c0,0-1.9-2.16-2.88-4.52c-0.98-2.36-1.02-5.23-1.02-5.23l0.44-0.19l-2.7-6.46
					c-0.48,0.38-0.94,0.86-1.31,1.49c-1.53,2.58-1.38,6.55,0.16,10.42c1.54,3.87,3.18,7.33,6.18,9.5c1.77,1.28,3.29,1.51,4.47,1.32
					L404.14,255.35z"/>
				<path class="st2" d="M406.08,254.59l-0.84,0.31l2.76,6.62c0.31-0.1,0.59-0.23,0.84-0.36c0.71-0.39,1.03-1.25,0.73-2.01
					l-1.44-3.64C407.81,254.7,406.9,254.29,406.08,254.59z"/>
				<path class="st2" d="M399.49,238.03c-0.34,0.12-0.71,0.29-1.08,0.51l2.76,6.6l0.93-0.39c0.81-0.34,1.19-1.25,0.88-2.07
					l-1.45-3.72C401.21,238.16,400.31,237.74,399.49,238.03z"/>
			</g>
		</g>
	</g>
	<g>
		<path class="st4" d="M149.22,372.26v-74.48c0,0-0.83-20.07,9.72-25.86s55.03-2.69,55.03-2.69v103.03H149.22z"/>
	</g>
	<g>
		<g>
			<path class="st5" d="M227.88,199.5c0,0-2.69,22.55-3.72,24.41c-1.03,1.86-1.03,1.86-1.03,1.86l-5.17,3.52
				c0,0,9.93,14.07,22.14,16.34c12.21,2.28,11.17-4.97,11.17-4.97l-1.86-3.93l2.48-21.52C251.88,215.23,229.74,205.09,227.88,199.5z
				"/>
		</g>
		<path class="st3" d="M211.53,231.16l8.07-3.52c0,0,5.17,8.48,17.17,13.45s12.21,2.07,12.83,0c0.62-2.07-0.21-4.34-0.21-4.34
			l0.89-7.24l4.8,1.6l16.66,134.75l-42.83,2.07L211.53,231.16z"/>
		<g>
			<path class="st2" d="M251.05,229.64c0,0,2.9,6.69,5.59,22.41c2.69,15.72,5.17,42.21,5.79,60.41s1.03,59.79,1.03,59.79
				s53.38,0,54,0s4.34-20.48,4.34-20.48s-23.59-20.21-24.83-23.52c-0.83-2.21-0.41-43.1-3.93-61.93
				c-3.52-18.83-8.07-22.62-17.59-27.31C265.63,234.17,251.05,229.64,251.05,229.64z"/>
		</g>
		<g>
			<path class="st6" d="M279.19,348.56c-0.28,0-0.5-0.22-0.5-0.5c0-1.48-0.26-22.5-0.52-42.82c-0.25-20.33-0.52-41.35-0.52-42.83
				c0-0.28,0.22-0.5,0.5-0.5s0.5,0.22,0.5,0.5c0,1.48,0.26,22.5,0.52,42.82c0.25,20.33,0.52,41.35,0.52,42.83
				C279.69,348.33,279.46,348.56,279.19,348.56z"/>
		</g>
		<g>
			<path class="st2" d="M171.6,343.5l-0.41,28.76h62.9c0,0,2.69-24.41,1.66-26.69C234.7,343.3,171.6,343.5,171.6,343.5z"/>
		</g>
		<g>
			<path class="st7" d="M241.6,223.3c2.56,2.07,6.07,3.72,8.8,4.73l1.48-12.8c0,0-16.63-7.62-22.27-13.28
				C230.79,208.38,233.69,216.91,241.6,223.3z"/>
		</g>
		<g>
			<path class="st5" d="M271.33,157.5c0,0,4.34,7.45,5.17,16.55c0.83,9.1,0,32.48-7.45,42.41c-7.45,9.93-22.97,7.03-30,1.03
				c-6.46-5.51-12.83-11.59-14.48-23.59c-1.66-12,3.52-34.76,18.21-39.52C257.46,149.64,271.33,157.5,271.33,157.5z"/>
		</g>
		<g>
			<g>
				<path class="st5" d="M289.99,359.26c0,0-0.73,0-1.84-0.03c-0.26-0.01-0.55,0-0.85-0.01c-1.07-0.03-2.37-0.06-3.68-0.1
					c-0.29-0.01-0.59-0.02-0.88-0.03c-1.3-0.03-2.41,0.13-3.45,0.07h-0.03c-0.22-0.01-0.54,0.02-0.8,0.03
					c-0.13,0.01-0.25,0.02-0.33,0.01c-0.6-0.11-0.72-0.25-1.37-0.54c-0.84-0.38-12.21-2.92-21.46-2.86
					c-9.24,0.04-17.53,0.67-18.88-0.46c-1.36-1.15-2.18-12.76,5.71-13.52l9.7,3.68c0,0,22.15-2.63,30.27,3.36
					C290.24,354.85,289.99,359.26,289.99,359.26z"/>
			</g>
			<g>
				<g>
					<path class="st2" d="M279.26,359.16c-0.22-0.01-0.54,0.02-0.8,0.03c-0.2-0.32-0.62-0.9-0.85-1.14
						c-2.5-2.55-8.54-4.2-10.73-4.73c-0.2-0.05-0.33-0.25-0.28-0.45c0.04-0.2,0.25-0.32,0.46-0.28c3.19,0.77,9.96,2.74,11.88,5.97
						C279,358.65,279.16,358.96,279.26,359.16z"/>
				</g>
			</g>
			<g>
				<g>
					<path class="st2" d="M283.62,359.11c-0.29-0.01-0.59-0.01-0.88-0.03c-2.73-4.98-7.2-6.41-12.71-8.18l-0.33-0.11
						c-0.19-0.06-0.3-0.28-0.24-0.48c0.06-0.19,0.27-0.3,0.48-0.24l0.32,0.11C276.09,352.06,280.79,353.56,283.62,359.11z"/>
				</g>
			</g>
			<g>
				<g>
					<path class="st2" d="M288.15,359.22c-0.26-0.01-0.55,0-0.85-0.01c-1.66-3.48-7.14-9.31-14.38-10.66
						c-0.21-0.04-0.34-0.23-0.31-0.44c0.04-0.2,0.24-0.33,0.44-0.3C280.51,349.22,286.54,355.31,288.15,359.22z"/>
				</g>
			</g>
		</g>
		<g>
			<path class="st2" d="M229.53,183.68c0,0,4.55-2.17,7.76-8.28c3.21-6.1,2.79-11.59,2.79-11.59s5.79-0.93,14.48,1.66
				c8.69,2.59,19.03,6.1,27.72,1.14c8.69-4.97,8.69-12.93,4.45-16.24c-4.75-3.71-14.17-1.45-14.17-1.45s3.62-3.52,1.66-5.59
				c-1.97-2.07-9.1,0.62-9.1,0.62s-8.69-6.93-25.14-6.1c-16.45,0.83-24.31,12.31-25.24,25.14c-0.93,12.83,3.72,25.66,3.72,25.66
				L229.53,183.68z"/>
		</g>
		<g>
			<g>
				<path class="st7" d="M262.9,186.79c-0.93,2.3-0.91,4.97-1.14,7.4c-0.18,1.9-0.53,4.11,1.21,5.39c0.83,0.61,4.76,2.26,2.74,3.6
					c-0.77,0.51-2.06,0.37-2.94,0.33c-0.6-0.03-1.21-0.05-1.82-0.1c-0.65-0.05-1.28-0.24-1.93-0.25c-0.38,0-0.5,0.5-0.19,0.7
					c1.04,0.65,2.58,0.86,3.79,0.9c1.22,0.05,2.04-0.01,3.14-0.55c0.67-0.33,1.33-0.81,1.43-1.61c0.12-0.9-0.56-1.71-1.24-2.22
					c-0.78-0.58-1.74-0.85-2.53-1.42c-1.1-0.78-1.01-2.11-0.93-3.33c0.19-2.94,0.86-5.83,1.12-8.76
					C263.66,186.44,263.04,186.44,262.9,186.79L262.9,186.79z"/>
			</g>
		</g>
		<g>
			<path class="st2" d="M271.36,193.66c-0.31,1.74-1.58,2.98-2.83,2.76c-1.26-0.22-2.02-1.82-1.72-3.56
				c0.31-1.74,1.58-2.98,2.83-2.76C270.9,190.33,271.67,191.92,271.36,193.66z"/>
		</g>
		<g>
			<path class="st2" d="M255.53,192.28c-0.28,1.88-1.61,3.24-2.96,3.04c-1.36-0.2-2.23-1.89-1.95-3.77
				c0.28-1.88,1.61-3.24,2.96-3.04S255.81,190.4,255.53,192.28z"/>
		</g>
		<g>
			<g>
				<path class="st2" d="M267.67,186.48c0.97,0.16,1.94,0,2.92,0.07c0.23,0.02,0.47,0.05,0.7,0.07c0.17,0.02-0.31-0.05-0.08-0.01
					c0.05,0.01,0.1,0.02,0.15,0.02c0.12,0.02,0.24,0.05,0.36,0.08c0.21,0.05,0.41,0.13,0.62,0.17c0.19,0.04,0.4,0.09,0.59,0.08
					c0.11-0.01,0.21-0.03,0.32-0.04c-0.07,0.01-0.13,0.02-0.2,0.04c0,0.02,0.36-0.03,0.4-0.04c0.55-0.13,0.9-0.77,0.74-1.31
					c-0.04-0.16-0.11-0.29-0.21-0.42c-0.04-0.05-0.08-0.11-0.13-0.16c0.04,0.04,0.08,0.09,0.12,0.13c-0.04-0.06-0.08-0.11-0.13-0.17
					c-0.05-0.09-0.13-0.17-0.22-0.22c-0.08-0.06-0.15-0.12-0.23-0.18c-0.26-0.18-0.59-0.28-0.9-0.36c-0.58-0.15-1.18-0.22-1.78-0.23
					c-0.59,0-1.18,0.06-1.76,0.14c-0.52,0.07-1.09,0.25-1.51,0.56c-0.32,0.24-0.52,0.55-0.47,0.97
					C267.02,186.01,267.3,186.41,267.67,186.48L267.67,186.48z"/>
			</g>
		</g>
		<g>
			<g>
				<path class="st2" d="M256.64,183.71c-0.13-0.08-0.27-0.15-0.4-0.21c-0.12-0.05-0.44-0.22-0.2-0.09
					c-0.09-0.05-0.18-0.1-0.27-0.14c-0.4-0.2-0.82-0.34-1.25-0.45c-0.94-0.24-1.94-0.3-2.91-0.2c-1.03,0.11-1.98,0.36-2.87,0.9
					c-0.13,0.08-0.26,0.15-0.36,0.26c-0.07,0.09-0.14,0.18-0.21,0.27c0.02-0.03,0.04-0.06,0.06-0.09c-0.28,0.19-0.44,0.51-0.43,0.84
					c0,0.32,0.17,0.59,0.45,0.74c0.34,0.19,0.66,0.1,1.01,0.01c-0.17,0-0.35,0-0.52,0c0.29,0.04,0.49,0.06,0.78-0.01
					c0.01,0,0.28-0.07,0.1-0.03c-0.17,0.04,0.28-0.03,0.33-0.04c0.06-0.01,0.37-0.04,0.04-0.01c0.06-0.01,0.12-0.01,0.18-0.02
					c0.16-0.02,0.31-0.04,0.47-0.05c0.68-0.05,1.36-0.08,2.05-0.11c0.63-0.02,1.28-0.03,1.92,0c0.27,0.01,0.54,0.02,0.81,0.03
					c0.15,0,0.09,0.03-0.02,0c0.06,0.02,0.11,0.03,0.17,0.04c0.11,0.03,0.22,0.07,0.33,0.11c0.44,0.17,0.97-0.15,1.13-0.56
					C257.21,184.47,257.06,183.96,256.64,183.71L256.64,183.71z"/>
			</g>
		</g>
		<g>
			<path class="st2" d="M261.55,212.47c0.95-1.91,2.68-3.31,4.67-4.21c-1.73-0.18-9.92-0.93-11.98,0.24
				c-2.31,1.31,0.43,6.59,5.21,6.85c0.5,0.03,0.96-0.01,1.4-0.08C260.89,214.31,261.11,213.36,261.55,212.47z"/>
		</g>
		<g>
			<path class="st8" d="M223.74,201.37c0,0,0.83,3.21,5.59,6.93c4.76,3.72,11.66,6.45,11.66,6.45l0.55-2.41c0,0-7.14-3.1-10.45-6.52
				c-3.31-3.41-3.72-5.28-3.72-5.28L223.74,201.37z"/>
		</g>
		<g>
			<path class="st2" d="M242.36,210.55c3.83-0.18,5.97,2.85,6.23,4.81c0.27,1.96-1.57,4.16-5.88,2.23
				C237.37,215.18,238.53,210.72,242.36,210.55z"/>
		</g>
		<g>
			<path class="st8" d="M226.74,177.68c0,0,1.65-11.89,9.62-19.97c15.21-15.41,28.14-14.48,28.14-14.48s-0.1-2.17-4.97-3.83
				c-4.57-1.55-6.62-0.72-6.62-0.72s-12.52,1.03-23.07,12.72c-10.55,11.69-11.69,26.59-11.69,26.59L226.74,177.68z"/>
		</g>
		<g>
			<g>
				<path class="st3" d="M225.6,176.23c-9.96-1.69-15.52,6.1-15.93,13.97c-0.41,7.86,5.3,13.84,12.93,13.24
					C239.77,202.09,237.81,178.3,225.6,176.23z"/>
			</g>
			<g>
				<path class="st9" d="M220.64,195.79c-2.63,0-4.85-1.32-6.12-3.65c-1.36-2.49-1.25-5.56,0.29-7.82c0.12-0.17,0.35-0.21,0.52-0.1
					c0.17,0.12,0.22,0.35,0.1,0.52c-1.38,2.03-1.48,4.79-0.25,7.04c1.16,2.13,3.22,3.34,5.66,3.26c2.28-0.06,4.21-1.1,5.43-2.93
					c1.4-2.09,1.72-4.97,0.82-7.35c-0.9-2.36-3.35-3.96-5.58-3.67c-0.2,0.03-0.39-0.12-0.42-0.32c-0.03-0.21,0.12-0.39,0.32-0.42
					c2.61-0.35,5.35,1.44,6.38,4.15c0.99,2.6,0.63,5.75-0.9,8.03c-1.37,2.04-3.51,3.2-6.03,3.26
					C220.78,195.79,220.71,195.79,220.64,195.79z"/>
			</g>
		</g>
		<g>
			<path class="st2" d="M213.39,228.26c0,0-30.21,7.45-40.76,19.45c-10.55,12-15.52,71.17-15.72,82.14
				c-0.21,10.97,7.45,15.52,12,18.62c4.55,3.1,24.62,8.69,40.76,9.52s31.45,0,31.45,0s-0.05-3.52,2.43-8.69
				c2.3-4.8,5.22-5.79,5.22-5.79l-13.86-4.97c0,0-2.43-43.49-6.21-64.55C224.36,249.78,213.39,228.26,213.39,228.26z"/>
		</g>
		<g>
			<path class="st6" d="M263.46,331.59c-0.07,0-0.14-0.01-0.2-0.04c-0.25-0.11-0.37-0.41-0.25-0.66c2.83-6.39,5.76-18.92,7.41-27.72
				l0.14-0.71c0.5-2.59,1.12-5.8-0.12-8.03c-0.63-1.13-2.06-3.59-3.44-5.95c-1.43-2.45-2.77-4.77-3.15-5.46
				c-0.73-1.35,1.57-4.96,4.89-9.91c0.9-1.34,1.67-2.49,2.12-3.27c1.18-2.05,0.4-3.92-0.52-6.1l-0.31-0.75
				c-0.83-2.03-1.77-4.06-2.68-6.03c-0.37-0.8-0.74-1.61-1.11-2.42c-0.49-1.07-0.97-2.16-1.47-3.26
				c-2.92-6.52-5.95-13.26-9.82-19.77c-0.14-0.24-0.06-0.54,0.17-0.69c0.24-0.14,0.54-0.06,0.69,0.17
				c3.9,6.56,6.94,13.33,9.87,19.87c0.49,1.1,0.98,2.19,1.46,3.25c0.37,0.81,0.74,1.61,1.11,2.41c0.91,1.98,1.86,4.02,2.69,6.07
				l0.31,0.74c0.93,2.21,1.89,4.51,0.46,6.98c-0.47,0.81-1.25,1.98-2.16,3.33c-1.73,2.58-5.33,7.95-4.84,8.88
				c0.37,0.68,1.71,2.99,3.13,5.43c1.38,2.37,2.81,4.83,3.45,5.97c1.42,2.54,0.76,5.96,0.23,8.7l-0.14,0.71
				c-0.6,3.2-3.79,19.6-7.48,27.94C263.84,331.48,263.65,331.59,263.46,331.59z"/>
		</g>
		<g>
			<path class="st6" d="M233.98,333.35c-0.13,0-0.26-0.05-0.35-0.15c-2.35-2.37-13.69-22-14.53-25.69
				c-0.46-2.02,0.7-7.15,1.82-12.11c0.87-3.84,1.77-7.81,1.51-8.89c-0.38-1.61-3.28-3.98-6.09-6.27c-3.39-2.77-6.89-5.63-7.57-8.21
				c-0.77-2.93-0.11-21.27,0.32-33.4c0.16-4.36,0.28-7.81,0.28-9.04c0-0.28,0.22-0.5,0.5-0.5c0,0,0,0,0,0c0.28,0,0.5,0.22,0.5,0.5
				c0,1.25-0.12,4.7-0.28,9.07c-0.41,11.34-1.09,30.32-0.36,33.11c0.6,2.26,4.12,5.14,7.23,7.68c3.07,2.51,5.96,4.87,6.42,6.81
				c0.31,1.3-0.53,5.03-1.51,9.34c-1.05,4.62-2.23,9.86-1.82,11.66c0.83,3.62,11.96,22.88,14.27,25.21c0.19,0.2,0.19,0.51,0,0.71
				C234.24,333.3,234.11,333.35,233.98,333.35z"/>
		</g>
		<g>
			<path class="st6" d="M193.33,324.76c-0.02,0-0.05,0-0.07,0c-0.27-0.04-0.46-0.29-0.43-0.57c0.37-2.6,6.11-54.4,6.37-58.37
				c0.02-0.28,0.26-0.49,0.53-0.47c0.28,0.02,0.48,0.26,0.47,0.53c-0.26,3.97-6.01,55.84-6.38,58.44
				C193.79,324.58,193.57,324.76,193.33,324.76z"/>
		</g>
		<g>
			<path class="st6" d="M234.5,338.83c-0.06,0-0.13-0.01-0.19-0.04c-1.27-0.52-6.89-2.41-14-4.81
				c-14.36-4.84-34.02-11.47-37.76-13.42c-0.25-0.13-0.34-0.43-0.21-0.67c0.13-0.25,0.43-0.34,0.67-0.21
				c3.67,1.91,24.1,8.8,37.62,13.36c7.13,2.41,12.76,4.3,14.06,4.83c0.26,0.1,0.38,0.4,0.28,0.65
				C234.88,338.71,234.69,338.83,234.5,338.83z"/>
		</g>
		<g>
			<path class="st6" d="M227.59,359.46c-12.64,0-37.13-2.28-55.74-8.86c-0.26-0.09-0.4-0.38-0.3-0.64c0.09-0.26,0.38-0.4,0.64-0.3
				c23.51,8.32,56.4,9.74,62.52,8.36c0.27-0.06,0.54,0.11,0.6,0.38c0.06,0.27-0.11,0.54-0.38,0.6
				C233.59,359.29,231.03,359.46,227.59,359.46z"/>
		</g>
	</g>
	<g>
		<g>
			<g>
				<path class="st10" d="M82.96,235.24c3.92,3.45,8.89,5.66,12.33,9.65c1.35,1.57,2.57,3.24,3.83,4.89
					c0.92,1.2,3.36,3.19,3.75,4.69c0.17,0.66,0.14-0.24-0.04-0.9c-0.01-0.03-0.02-0.05-0.03-0.08c-0.34-3.05-0.59-6.11-0.7-9.18
					c-0.11-3.06,0.08-6.13-0.11-9.18c-0.27-4.31-1.62-8.48-5.14-11.18c-1.72-1.32-3.93-2.12-5.52-3.59c-1.5-1.39-0.9-2.98-0.02-4.53
					c0.83-1.45,1.83-2.88,2.15-4.55c0.37-1.9-0.35-3.86-1.31-5.47c-2.05-3.44-6.59-7.28-10.9-6.76c-3.59,0.43-4,4.57-3.94,7.45
					c0.05,2.8,0.33,5.6,0.35,8.4c0.03,2.88-0.46,5.71-0.5,8.58C77.12,228.36,79.37,232.08,82.96,235.24z"/>
				<path class="st10" d="M119.41,280.02c1.09-2.61,2.35-5.04,3.89-7.41c2.11-3.25,4.46-6.42,5.88-10.06
					c1.45-3.72,1.24-7.69,1.38-11.6c0.1-2.88,0.96-5.74,0.73-8.63c-0.11-1.38-0.91-3.62-2.7-3.39c-1.39,0.18-2.22,1.9-2.75,3.01
					c-0.93,1.92-1.58,3.97-2.27,5.99c-0.27,0.79-0.53,1.59-0.87,2.35c-0.2,0.44-0.83,1.52-1.43,1.38c-1.02-0.25-0.09-4.4,0.06-5.14
					c0.76-3.69,1.9-7.12,2.06-10.92c0.23-5.51-0.2-12.07-5.59-15.08c-1.41-0.79-3.19-1.26-4.53-0.08c-1.32,1.16-1.69,3.17-1.89,4.83
					c-0.6,5.09,0.6,9.9,2.23,14.69c1.35,3.95,2.95,8.03,3.07,12.26c0.11,4.07-2,7.67-3,11.52c-1.58,6.12-1.26,9.37-1.26,11.35
					c-0.01,2.48,0.08,4.94,0.26,7.42c0.17,2.28,0.36,4.55,0.64,6.82c0.06,0.46,0.11,0.94,0.17,1.42c-0.88-2.11-1.18-4.52-1.91-6.64
					c-1.29-3.76-2.78-7.45-4.02-11.23c-1.02-3.12-1.99-6.27-3.33-9.28c-1.26-2.82-2.79-5.8-5.15-7.87
					c-1.43-1.25-3.15-1.98-5.06-1.97c-1.22,0.01-2.32,0.43-3.48,0.74c-1.43,0.38-2.56,0.25-3.74-0.66
					c-3.86-2.97-5.04-8.29-7.89-12.05c-2.13-2.8-7.19-7.58-10.91-4.52c-1.97,1.62-2.52,4.75-2.41,7.16
					c0.13,3.01,1.45,5.77,3.01,8.29c1.67,2.68,3.82,5.08,5.35,7.83c0.91,1.63,1.05,3.19,0.9,5.02c-0.14,1.73-0.29,3.4,0.3,5.07
					c1.77,5.01,7.3,4.31,11.6,4.44c3.01,0.09,6.23,0.54,9.09,1.5c3.3,1.11,5.45,3.26,6.63,6.52c0.85,2.36,1.31,5.05,2.92,7.05
					c0.76,0.94,1.76,1.64,2.86,2.13c1.68,0.74,6.79,1.06,6.82,0.6c0.13-1.56,0.87-3.21,1.33-4.69
					C117.26,285.42,118.28,282.71,119.41,280.02z"/>
				<path class="st10" d="M143.14,279.08c-0.44-2.86-0.36-6.02-1.72-8.65c-0.1-0.19-0.35-0.24-0.53-0.14
					c-0.97,0.54-1.01,2.11-1.09,3.07c-0.13,1.6-0.03,3.2-0.23,4.79c-0.34,2.8-0.99,5.68-2,8.31c-1.14,2.98-3.21,4.67-6.22,5.6
					c-1.93,0.6-3.83,1.12-5.45,2.4c-1.45,1.15-2.45,2.73-3.19,4.4c-2.01,4.51-2.97,9.54-3.9,14.36c-0.63,3.24-1.14,6.5-1.93,9.71
					c-0.79,3.21-1.63,6.4-2.08,9.68c-0.08,0.17-0.16,0.33-0.23,0.5c-0.21,0.49,0.56,0.75,0.82,0.35c3.11-4.78,6.89-9.08,12.06-11.71
					c2.33-1.19,5.43-1.44,7.38-3.31c1.48-1.42,1.68-3.59,1.46-5.53c-0.29-2.54-1.51-4.63-2.78-6.8c-0.7-1.19-1.52-2.46-1.24-3.91
					c0.27-1.36,1.4-2.37,2.52-3.07c2.15-1.33,4.66-1.93,6.41-3.85c1.63-1.78,2.54-4.01,2.72-6.41
					C144.18,285.68,143.63,282.24,143.14,279.08z"/>
				<path class="st10" d="M100.77,295.59c-2.74-3.53-6.05-6.58-9.77-9.05c-1.99-1.32-6.67-3.92-7.62-0.03
					c-0.55,2.28,1.68,4.52,3.15,5.95c2.21,2.15,4.76,4,6.62,6.48c-2.31,0.74-4.72,0.88-6.72,2.47c-2.37,1.89-3.44,5.53-1.08,7.85
					c1.15,1.13,2.67,1.82,4.09,2.51c1.86,0.9,3.75,1.71,5.65,2.51c4.11,1.72,8.27,3.46,11.77,6.27c3.57,2.86,6.93,7.71,7.21,12.38
					c0.03,0.45-0.14,0.04,0.12-0.16c0.15,0.13,0.63-0.1,0.63-0.36c-0.07-6.93-1.32-13.54-4.15-19.89
					C108.05,306.62,104.73,300.69,100.77,295.59z"/>
			</g>
			<g>
				<path class="st11" d="M91.3,231.04c1.51,3.14,3.09,6.21,4.77,9.27c1.62,2.95,3.23,5.87,4.44,9.02
					c1.49,3.87,3.05,7.68,4.62,11.52c1.64,3.99,3.1,8.05,4.27,12.2c2.29,8.1,3.99,16.43,4.83,24.81c0.43,4.26,0.62,8.54,0.5,12.82
					c-0.09,3.34-0.47,6.65-0.78,9.98c-0.33,3.46-0.56,6.97-0.27,10.44c0.24,2.9,0.7,6.36,2.96,8.43c0.44,0.41,1.07-0.1,0.81-0.62
					c-2.68-5.49-2.53-11.48-2.02-17.43c0.28-3.29,0.67-6.56,0.79-9.86c0.14-4.2-0.02-8.41-0.42-12.59
					c-0.78-8.22-2.42-16.34-4.54-24.31c-1.09-4.09-2.44-8.1-3.99-12.03c-1.56-3.94-3.36-7.78-4.87-11.74
					c-2.73-7.17-6.89-13.52-10.58-20.2C91.64,230.38,91.14,230.69,91.3,231.04L91.3,231.04z"/>
			</g>
			<g>
				<path class="st11" d="M114.37,289.64c0.43-5.22,0.9-10.25,2.65-15.22c0.82-2.32,1.81-4.58,2.61-6.91
					c0.65-1.93,1.63-4.57,1.13-6.62c-0.06-0.23-0.39-0.22-0.45,0c-0.34,1.17-0.3,2.45-0.54,3.65c-0.24,1.17-0.55,2.31-0.91,3.45
					c-0.77,2.41-1.78,4.72-2.65,7.1c-1.69,4.59-2.56,9.67-2.19,14.55C114.03,289.87,114.35,289.87,114.37,289.64L114.37,289.64z"/>
			</g>
			<g>
				<path class="st11" d="M84.12,259.65c2.07,5,8.3,5.29,12.84,6.41c3.24,0.8,5.63,2.96,7.35,5.77c1.88,3.07,3.15,6.67,4.2,10.1
					c0.01,0.04,0.07,0.02,0.06-0.02c-1.27-6-3.09-13.22-9.27-16.01c-4.96-2.24-11.49-1.11-14.65-6.47
					C84.48,259.17,84,259.34,84.12,259.65L84.12,259.65z"/>
			</g>
			<g>
				<path class="st11" d="M111.09,288.85c0.25,0.33,0.47,0.68,0.73,1.01c0.13,0.16,0.25,0.31,0.41,0.44
					c0.16,0.13,0.35,0.3,0.58,0.29c0.09,0,0.16-0.11,0.11-0.19c-0.1-0.17-0.29-0.27-0.43-0.39c-0.15-0.13-0.3-0.26-0.44-0.4
					c-0.29-0.27-0.55-0.57-0.84-0.85C111.15,288.71,111.04,288.78,111.09,288.85L111.09,288.85z"/>
			</g>
			<g>
				<path class="st11" d="M98.14,304.73c3.57,2.93,6.87,6.4,9.49,10.21c1.25,1.82,2.41,3.74,3.46,5.68c1.14,2.12,1.9,4.36,2.79,6.59
					c0.07,0.17,0.38,0.17,0.35-0.05c-0.5-4.71-3.48-8.74-5.86-12.66c-1.24-2.03-2.78-3.67-4.44-5.37c-1.71-1.75-3.46-3.41-5.46-4.82
					C98.22,304.14,97.9,304.53,98.14,304.73L98.14,304.73z"/>
			</g>
			<g>
				<path class="st11" d="M126.59,299.18c-1.72,0.98-1.78,3.69-1.81,5.43c-0.06,3.34,0.76,6.47-0.7,9.65
					c-1.32,2.87-3.43,5.27-5.09,7.93c-1.55,2.5-3.09,5.69-3.05,8.69c0,0.17,0.27,0.27,0.35,0.09c0.63-1.36,0.85-2.91,1.3-4.34
					c0.5-1.61,1.21-3.07,2.12-4.48c1.6-2.48,3.56-4.73,4.86-7.39c1.37-2.81,1.17-5.59,1.08-8.63c-0.06-1.94-0.25-5.06,1.31-6.5
					C127.19,299.41,126.88,299.03,126.59,299.18L126.59,299.18z"/>
			</g>
		</g>
		<path class="st3" d="M115.08,331.19c-6.93-0.1-20.14-0.17-20.14-0.17l3.27,24.26c0.74,5.46,5.39,9.53,10.9,9.53h5.69h0.55h5.69
			c5.51,0,10.17-4.07,10.9-9.53l3.27-24.26C135.22,331.02,122.02,331.1,115.08,331.19z"/>
	</g>
	<g>
		<g>
			<g>
				<polygon class="st12" points="450.19,286.61 410.64,364.95 295.33,365.78 330.91,285.5 				"/>
			</g>
			<g>
				<path class="st13" d="M218.8,365.29l0.02-6.27h74.65l34.34-75.31h119.38l3,2.9H333.57l-35.69,78.62
					C297.88,365.23,218.8,365.08,218.8,365.29z"/>
			</g>
			<g>
				<path class="st13" d="M390.31,329.84c-1.3,3.91-8.37,6.93-15.79,6.74c-7.42-0.19-12.38-3.5-11.07-7.41s8.37-6.93,15.79-6.74
					C386.65,322.61,391.61,325.93,390.31,329.84z"/>
			</g>
		</g>
		<g>
			<path class="st3" d="M297.88,365.73c-0.07,0-0.14-0.01-0.21-0.04c-0.25-0.11-0.36-0.41-0.25-0.66l35.82-78.91h116.94
				c0.28,0,0.5,0.22,0.5,0.5c0,0.28-0.22,0.5-0.5,0.5h-116.3l-35.56,78.33C298.25,365.62,298.07,365.73,297.88,365.73z"/>
		</g>
	</g>
	<g>
		<g>
			<rect x="76.43" y="371.23" class="st14" width="137.17" height="30.41"/>
			<rect x="212.82" y="371.23" class="st15" width="246.8" height="30.41"/>
		</g>
		<polygon class="st16" points="213.6,371.23 212.82,371.23 76.43,371.23 76.43,376.81 212.82,376.81 213.6,376.81 459.62,376.81 
			459.62,371.23 		"/>
		<rect x="69.81" y="365.23" class="st17" width="149.79" height="7.45"/>
		<rect x="218.82" y="365.23" class="st18" width="246.8" height="7.45"/>
	</g>
	<g>
		<path class="st3" d="M178.97,205.66h-48.42c-3,0-5.43-2.43-5.43-5.43v-24.17c0-3,2.43-5.43,5.43-5.43h48.42
			c3,0,5.43,2.43,5.43,5.43v24.17C184.39,203.23,181.97,205.66,178.97,205.66z"/>
		<polygon class="st3" points="198.2,188.14 180.01,180.47 180.01,195.82 		"/>
		<g>
			<circle class="st2" cx="143.27" cy="188.14" r="3.35"/>
			<circle class="st2" cx="154.76" cy="188.14" r="3.35"/>
			<circle class="st2" cx="166.24" cy="188.14" r="3.35"/>
		</g>
	</g>
	<g>
		<path class="st1" d="M425.5,96.26H313.7c-7.18,0-13,5.82-13,13v53.03c0,7.18,5.82,13,13,13h10.02c0.28,4.81-0.41,11.96-4.42,21.1
			c12.92-5.96,20.35-14.9,24.24-21.1h81.96c7.18,0,13-5.82,13-13v-53.03C438.5,102.08,432.68,96.26,425.5,96.26z"/>
		<path class="st3" d="M377.81,121.54h-55.45c-1.52,0-2.76-1.24-2.76-2.76l0,0c0-1.52,1.24-2.76,2.76-2.76h55.45
			c1.52,0,2.76,1.24,2.76,2.76l0,0C380.57,120.3,379.33,121.54,377.81,121.54z"/>
		<path class="st19" d="M417.57,137.61h-96.28c-0.93,0-1.69-0.76-1.69-1.69l0,0c0-0.93,0.76-1.69,1.69-1.69h96.28
			c0.93,0,1.69,0.76,1.69,1.69l0,0C419.26,136.85,418.5,137.61,417.57,137.61z"/>
		<path class="st19" d="M417.57,146.99h-96.28c-0.93,0-1.69-0.76-1.69-1.69l0,0c0-0.93,0.76-1.69,1.69-1.69h96.28
			c0.93,0,1.69,0.76,1.69,1.69l0,0C419.26,146.23,418.5,146.99,417.57,146.99z"/>
		<path class="st19" d="M396.57,156.99h-75.27c-0.93,0-1.69-0.76-1.69-1.69l0,0c0-0.93,0.76-1.69,1.69-1.69h75.27
			c0.93,0,1.69,0.76,1.69,1.69l0,0C398.26,156.23,397.5,156.99,396.57,156.99z"/>
		<path class="st3" d="M416.81,121.54h-26.45c-1.52,0-2.76-1.24-2.76-2.76l0,0c0-1.52,1.24-2.76,2.76-2.76h26.45
			c1.52,0,2.76,1.24,2.76,2.76l0,0C419.57,120.3,418.33,121.54,416.81,121.54z"/>
	</g>
	<g>
		<path class="st3" d="M350.14,243.5h-30.03c-1.1,0-2-0.9-2-2v-20.52c0-1.1,0.9-2,2-2h30.03c1.1,0,2,0.9,2,2v20.52
			C352.14,242.61,351.25,243.5,350.14,243.5z"/>
		<g>
			<g>
				<path class="st17" d="M335.33,234.91c-0.17,0-0.34-0.06-0.48-0.17l-16.35-13.5c-0.32-0.26-0.36-0.74-0.1-1.06
					c0.27-0.32,0.74-0.36,1.06-0.1l15.86,13.1l15.45-13.44c0.31-0.27,0.79-0.24,1.06,0.07c0.27,0.31,0.24,0.79-0.07,1.06
					l-15.93,13.86C335.69,234.85,335.51,234.91,335.33,234.91z"/>
			</g>
			<g>
				<path class="st17" d="M318.99,242.94c-0.19,0-0.37-0.07-0.52-0.21c-0.3-0.29-0.31-0.76-0.03-1.06l11.43-12.02
					c0.28-0.3,0.76-0.31,1.06-0.03c0.3,0.29,0.31,0.76,0.03,1.06l-11.43,12.02C319.39,242.87,319.19,242.94,318.99,242.94z"/>
			</g>
			<g>
				<path class="st17" d="M351.27,242.5c-0.19,0-0.38-0.07-0.53-0.22l-11.39-11.42c-0.29-0.29-0.29-0.77,0-1.06
					c0.29-0.29,0.77-0.29,1.06,0l11.39,11.42c0.29,0.29,0.29,0.77,0,1.06C351.65,242.43,351.46,242.5,351.27,242.5z"/>
			</g>
		</g>
		<g>
			<g>
				<circle class="st20" cx="353.7" cy="218.23" r="10.03"/>
			</g>
			<text transform="matrix(1 0 0 1 346.6522 222.4625)" class="st3 st21 st22">85</text>
		</g>
	</g>
	<g>
		<g>
			<path class="st2" d="M454.49,214.53h-58.62c-2.21,0-4-1.79-4-4v-9.17c0-2.21,1.79-4,4-4h58.62c2.21,0,4,1.79,4,4v9.17
				C458.49,212.74,456.7,214.53,454.49,214.53z"/>
		</g>
		<g>
			<path class="st3" d="M400.1,210.45c-0.26,0-0.47-0.09-0.63-0.28c-0.16-0.19-0.23-0.42-0.21-0.7l0.25-2.22
				c0.02-0.06,0.01-0.09-0.03-0.11c-0.04-0.02-0.08-0.01-0.14,0.03l-1.83,1.32c-0.23,0.17-0.46,0.23-0.7,0.18
				c-0.24-0.05-0.44-0.19-0.59-0.44c-0.17-0.3-0.2-0.56-0.1-0.79c0.1-0.23,0.28-0.38,0.52-0.48l2.05-0.93
				c0.06-0.02,0.08-0.05,0.08-0.08c0-0.04-0.03-0.07-0.08-0.08l-2.05-0.93c-0.26-0.11-0.43-0.29-0.51-0.53
				c-0.07-0.24-0.05-0.49,0.08-0.73c0.15-0.24,0.35-0.39,0.59-0.44c0.24-0.05,0.48,0,0.7,0.15l1.83,1.35
				c0.06,0.04,0.1,0.05,0.14,0.03c0.04-0.02,0.05-0.06,0.03-0.11l-0.25-2.22c-0.02-0.28,0.06-0.52,0.23-0.7
				c0.17-0.19,0.39-0.28,0.68-0.28c0.26,0,0.48,0.09,0.65,0.28c0.17,0.19,0.23,0.42,0.2,0.7l-0.25,2.22
				c-0.02,0.06-0.01,0.09,0.03,0.11c0.04,0.02,0.08,0.01,0.14-0.03l1.83-1.32c0.22-0.17,0.46-0.23,0.72-0.18
				c0.25,0.05,0.45,0.19,0.58,0.44c0.17,0.3,0.2,0.56,0.1,0.79c-0.1,0.22-0.28,0.38-0.52,0.48l-2.05,0.93
				c-0.06,0.02-0.08,0.05-0.08,0.08c0,0.04,0.03,0.07,0.08,0.08l2.05,0.93c0.26,0.11,0.44,0.29,0.52,0.53
				c0.08,0.24,0.05,0.49-0.1,0.73c-0.13,0.24-0.32,0.39-0.58,0.44c-0.25,0.05-0.49,0-0.72-0.15l-1.83-1.35
				c-0.06-0.04-0.1-0.05-0.14-0.03c-0.04,0.02-0.05,0.06-0.03,0.11l0.25,2.22c0.04,0.28-0.03,0.52-0.21,0.7
				C400.61,210.36,400.38,210.45,400.1,210.45z"/>
		</g>
		<g>
			<path class="st3" d="M412.22,210.45c-0.26,0-0.47-0.09-0.63-0.28c-0.16-0.19-0.23-0.42-0.21-0.7l0.25-2.22
				c0.02-0.06,0.01-0.09-0.03-0.11c-0.04-0.02-0.08-0.01-0.14,0.03l-1.83,1.32c-0.23,0.17-0.46,0.23-0.7,0.18
				c-0.24-0.05-0.44-0.19-0.59-0.44c-0.17-0.3-0.2-0.56-0.1-0.79c0.1-0.23,0.28-0.38,0.52-0.48l2.05-0.93
				c0.06-0.02,0.08-0.05,0.08-0.08c0-0.04-0.03-0.07-0.08-0.08l-2.05-0.93c-0.26-0.11-0.43-0.29-0.51-0.53
				c-0.07-0.24-0.05-0.49,0.08-0.73c0.15-0.24,0.35-0.39,0.59-0.44c0.24-0.05,0.48,0,0.7,0.15l1.83,1.35
				c0.06,0.04,0.1,0.05,0.14,0.03c0.04-0.02,0.05-0.06,0.03-0.11l-0.25-2.22c-0.02-0.28,0.06-0.52,0.23-0.7
				c0.17-0.19,0.39-0.28,0.68-0.28c0.26,0,0.48,0.09,0.65,0.28c0.17,0.19,0.23,0.42,0.2,0.7l-0.25,2.22
				c-0.02,0.06-0.01,0.09,0.03,0.11c0.04,0.02,0.08,0.01,0.14-0.03l1.83-1.32c0.22-0.17,0.46-0.23,0.72-0.18
				c0.25,0.05,0.44,0.19,0.58,0.44c0.17,0.3,0.2,0.56,0.1,0.79c-0.1,0.22-0.28,0.38-0.52,0.48l-2.05,0.93
				c-0.06,0.02-0.08,0.05-0.08,0.08c0,0.04,0.03,0.07,0.08,0.08l2.05,0.93c0.26,0.11,0.44,0.29,0.52,0.53
				c0.08,0.24,0.05,0.49-0.1,0.73c-0.13,0.24-0.32,0.39-0.58,0.44c-0.25,0.05-0.49,0-0.72-0.15l-1.83-1.35
				c-0.06-0.04-0.1-0.05-0.14-0.03c-0.04,0.02-0.05,0.06-0.03,0.11l0.25,2.22c0.04,0.28-0.03,0.52-0.21,0.7
				C412.73,210.36,412.5,210.45,412.22,210.45z"/>
		</g>
		<g>
			<path class="st3" d="M424.35,210.45c-0.26,0-0.47-0.09-0.63-0.28c-0.16-0.19-0.23-0.42-0.21-0.7l0.25-2.22
				c0.02-0.06,0.01-0.09-0.03-0.11c-0.04-0.02-0.08-0.01-0.14,0.03l-1.83,1.32c-0.23,0.17-0.46,0.23-0.7,0.18
				c-0.24-0.05-0.44-0.19-0.59-0.44c-0.17-0.3-0.2-0.56-0.1-0.79c0.1-0.23,0.28-0.38,0.52-0.48l2.05-0.93
				c0.06-0.02,0.08-0.05,0.08-0.08c0-0.04-0.03-0.07-0.08-0.08l-2.05-0.93c-0.26-0.11-0.43-0.29-0.51-0.53
				c-0.07-0.24-0.05-0.49,0.08-0.73c0.15-0.24,0.35-0.39,0.59-0.44c0.24-0.05,0.48,0,0.7,0.15l1.83,1.35
				c0.06,0.04,0.1,0.05,0.14,0.03c0.04-0.02,0.05-0.06,0.03-0.11l-0.25-2.22c-0.02-0.28,0.06-0.52,0.23-0.7
				c0.17-0.19,0.39-0.28,0.68-0.28c0.26,0,0.48,0.09,0.65,0.28c0.17,0.19,0.23,0.42,0.2,0.7l-0.25,2.22
				c-0.02,0.06-0.01,0.09,0.03,0.11c0.04,0.02,0.08,0.01,0.14-0.03l1.83-1.32c0.22-0.17,0.46-0.23,0.72-0.18
				c0.25,0.05,0.45,0.19,0.58,0.44c0.17,0.3,0.2,0.56,0.1,0.79c-0.1,0.22-0.28,0.38-0.52,0.48l-2.05,0.93
				c-0.06,0.02-0.08,0.05-0.08,0.08c0,0.04,0.03,0.07,0.08,0.08l2.05,0.93c0.26,0.11,0.44,0.29,0.52,0.53
				c0.08,0.24,0.05,0.49-0.1,0.73c-0.13,0.24-0.32,0.39-0.58,0.44c-0.25,0.05-0.49,0-0.72-0.15l-1.83-1.35
				c-0.06-0.04-0.1-0.05-0.14-0.03c-0.04,0.02-0.05,0.06-0.03,0.11l0.25,2.22c0.04,0.28-0.03,0.52-0.21,0.7
				C424.86,210.36,424.63,210.45,424.35,210.45z"/>
		</g>
		<g>
			<path class="st3" d="M436.47,210.45c-0.26,0-0.47-0.09-0.63-0.28c-0.16-0.19-0.23-0.42-0.21-0.7l0.25-2.22
				c0.02-0.06,0.01-0.09-0.03-0.11c-0.04-0.02-0.08-0.01-0.14,0.03l-1.83,1.32c-0.23,0.17-0.46,0.23-0.7,0.18
				c-0.24-0.05-0.44-0.19-0.59-0.44c-0.17-0.3-0.2-0.56-0.1-0.79c0.1-0.23,0.28-0.38,0.52-0.48l2.05-0.93
				c0.06-0.02,0.08-0.05,0.08-0.08c0-0.04-0.03-0.07-0.08-0.08l-2.05-0.93c-0.26-0.11-0.43-0.29-0.51-0.53
				c-0.07-0.24-0.05-0.49,0.08-0.73c0.15-0.24,0.35-0.39,0.59-0.44c0.24-0.05,0.48,0,0.7,0.15l1.83,1.35
				c0.06,0.04,0.1,0.05,0.14,0.03c0.04-0.02,0.05-0.06,0.03-0.11l-0.25-2.22c-0.02-0.28,0.06-0.52,0.23-0.7
				c0.17-0.19,0.39-0.28,0.68-0.28c0.26,0,0.48,0.09,0.65,0.28c0.17,0.19,0.23,0.42,0.2,0.7l-0.25,2.22
				c-0.02,0.06-0.01,0.09,0.03,0.11c0.04,0.02,0.08,0.01,0.14-0.03l1.83-1.32c0.22-0.17,0.46-0.23,0.72-0.18
				c0.25,0.05,0.45,0.19,0.58,0.44c0.17,0.3,0.2,0.56,0.1,0.79c-0.1,0.22-0.28,0.38-0.52,0.48l-2.05,0.93
				c-0.06,0.02-0.08,0.05-0.08,0.08c0,0.04,0.03,0.07,0.08,0.08l2.05,0.93c0.26,0.11,0.44,0.29,0.52,0.53
				c0.08,0.24,0.05,0.49-0.1,0.73c-0.13,0.24-0.32,0.39-0.58,0.44c-0.25,0.05-0.49,0-0.72-0.15l-1.83-1.35
				c-0.06-0.04-0.1-0.05-0.14-0.03c-0.04,0.02-0.05,0.06-0.03,0.11l0.25,2.22c0.04,0.28-0.03,0.52-0.21,0.7
				C436.98,210.36,436.75,210.45,436.47,210.45z"/>
		</g>
		<g>
			<path class="st23" d="M448.6,210.45c-0.26,0-0.47-0.09-0.63-0.28c-0.16-0.19-0.23-0.42-0.21-0.7l0.25-2.22
				c0.02-0.06,0.01-0.09-0.03-0.11c-0.04-0.02-0.08-0.01-0.14,0.03l-1.83,1.32c-0.23,0.17-0.46,0.23-0.7,0.18
				c-0.24-0.05-0.44-0.19-0.59-0.44c-0.17-0.3-0.2-0.56-0.1-0.79c0.1-0.23,0.28-0.38,0.52-0.48l2.05-0.93
				c0.06-0.02,0.08-0.05,0.08-0.08c0-0.04-0.03-0.07-0.08-0.08l-2.05-0.93c-0.26-0.11-0.43-0.29-0.51-0.53
				c-0.07-0.24-0.05-0.49,0.08-0.73c0.15-0.24,0.35-0.39,0.59-0.44c0.24-0.05,0.48,0,0.7,0.15l1.83,1.35
				c0.06,0.04,0.1,0.05,0.14,0.03c0.04-0.02,0.05-0.06,0.03-0.11l-0.25-2.22c-0.02-0.28,0.06-0.52,0.23-0.7
				c0.17-0.19,0.39-0.28,0.68-0.28c0.26,0,0.48,0.09,0.65,0.28c0.17,0.19,0.23,0.42,0.2,0.7l-0.25,2.22
				c-0.02,0.06-0.01,0.09,0.03,0.11c0.04,0.02,0.08,0.01,0.14-0.03l1.83-1.32c0.22-0.17,0.46-0.23,0.72-0.18
				c0.25,0.05,0.45,0.19,0.58,0.44c0.17,0.3,0.2,0.56,0.1,0.79c-0.1,0.22-0.28,0.38-0.52,0.48l-2.05,0.93
				c-0.06,0.02-0.08,0.05-0.08,0.08c0,0.04,0.03,0.07,0.08,0.08l2.05,0.93c0.26,0.11,0.44,0.29,0.52,0.53
				c0.08,0.24,0.05,0.49-0.1,0.73c-0.13,0.24-0.32,0.39-0.58,0.44c-0.25,0.05-0.49,0-0.72-0.15l-1.83-1.35
				c-0.06-0.04-0.1-0.05-0.14-0.03c-0.04,0.02-0.05,0.06-0.03,0.11l0.25,2.22c0.04,0.28-0.03,0.52-0.21,0.7
				C449.11,210.36,448.88,210.45,448.6,210.45z"/>
		</g>
	</g>
</g>
</svg>
